<mxfile host="Electron" modified="2023-08-04T08:31:30.795Z" agent="Mozilla/5.0 (Macintosh; Intel Mac OS X 10_15_7) AppleWebKit/537.36 (KHTML, like Gecko) draw.io/21.6.5 Chrome/114.0.5735.243 Electron/25.3.1 Safari/537.36" etag="_9Fw6YWqhqQmaMch-4l-" version="21.6.5" type="device">
  <diagram name="overview" id="S7--UP4HgmZW3B2tHNnv">
    <mxGraphModel dx="1026" dy="743" grid="1" gridSize="10" guides="1" tooltips="1" connect="1" arrows="1" fold="1" page="1" pageScale="1" pageWidth="827" pageHeight="1169" math="0" shadow="0">
      <root>
        <mxCell id="0" />
        <mxCell id="1" parent="0" />
        <mxCell id="wNOov2tvG_YunCxTbI9r-30" value="" style="rounded=0;whiteSpace=wrap;html=1;strokeColor=#ffae00;fillColor=none;strokeWidth=3;dashed=1;" vertex="1" parent="1">
          <mxGeometry x="100" y="120" width="750" height="360" as="geometry" />
        </mxCell>
        <mxCell id="wNOov2tvG_YunCxTbI9r-27" value="" style="rounded=0;whiteSpace=wrap;html=1;rotation=-90;strokeColor=none;fillColor=#e1d5e7;" vertex="1" parent="1">
          <mxGeometry x="592.5" y="222.5" width="282.5" height="215" as="geometry" />
        </mxCell>
        <mxCell id="wNOov2tvG_YunCxTbI9r-18" value="" style="rounded=0;whiteSpace=wrap;html=1;strokeColor=none;fillColor=#ffe6cc;" vertex="1" parent="1">
          <mxGeometry x="170" y="340" width="275" height="130" as="geometry" />
        </mxCell>
        <mxCell id="wNOov2tvG_YunCxTbI9r-19" value="" style="rounded=0;whiteSpace=wrap;html=1;rotation=-90;strokeColor=none;fillColor=#ffe6cc;" vertex="1" parent="1">
          <mxGeometry x="94.38" y="264.38" width="281.25" height="130" as="geometry" />
        </mxCell>
        <mxCell id="wNOov2tvG_YunCxTbI9r-16" value="" style="edgeStyle=orthogonalEdgeStyle;rounded=0;orthogonalLoop=1;jettySize=auto;html=1;" edge="1" parent="1" source="wNOov2tvG_YunCxTbI9r-1" target="wNOov2tvG_YunCxTbI9r-7">
          <mxGeometry relative="1" as="geometry" />
        </mxCell>
        <mxCell id="wNOov2tvG_YunCxTbI9r-1" value="&amp;lt;&amp;lt;Deployment&amp;gt;&amp;gt;&lt;br&gt;Microservice" style="sketch=0;html=1;dashed=0;whitespace=wrap;fillColor=#2875E2;strokeColor=#ffffff;points=[[0.005,0.63,0],[0.1,0.2,0],[0.9,0.2,0],[0.5,0,0],[0.995,0.63,0],[0.72,0.99,0],[0.5,1,0],[0.28,0.99,0]];verticalLabelPosition=top;align=center;verticalAlign=bottom;shape=mxgraph.kubernetes.icon;prIcon=deploy;labelPosition=center;" vertex="1" parent="1">
          <mxGeometry x="490" y="228" width="50" height="48" as="geometry" />
        </mxCell>
        <mxCell id="wNOov2tvG_YunCxTbI9r-3" value="&amp;lt;&amp;lt;CRD&amp;gt;&amp;gt;&lt;br&gt;TriggerAuthentication" style="sketch=0;html=1;dashed=0;whitespace=wrap;fillColor=#2875E2;strokeColor=#ffffff;points=[[0.005,0.63,0],[0.1,0.2,0],[0.9,0.2,0],[0.5,0,0],[0.995,0.63,0],[0.72,0.99,0],[0.5,1,0],[0.28,0.99,0]];verticalLabelPosition=bottom;align=center;verticalAlign=top;shape=mxgraph.kubernetes.icon;prIcon=crd" vertex="1" parent="1">
          <mxGeometry x="670" y="360" width="50" height="48" as="geometry" />
        </mxCell>
        <mxCell id="wNOov2tvG_YunCxTbI9r-14" value="" style="edgeStyle=orthogonalEdgeStyle;rounded=0;orthogonalLoop=1;jettySize=auto;html=1;" edge="1" parent="1" source="wNOov2tvG_YunCxTbI9r-4" target="wNOov2tvG_YunCxTbI9r-1">
          <mxGeometry relative="1" as="geometry" />
        </mxCell>
        <mxCell id="wNOov2tvG_YunCxTbI9r-15" value="" style="edgeStyle=orthogonalEdgeStyle;rounded=0;orthogonalLoop=1;jettySize=auto;html=1;" edge="1" parent="1" source="wNOov2tvG_YunCxTbI9r-4" target="wNOov2tvG_YunCxTbI9r-3">
          <mxGeometry relative="1" as="geometry" />
        </mxCell>
        <mxCell id="wNOov2tvG_YunCxTbI9r-4" value="&amp;lt;&amp;lt;CRD&amp;gt;&amp;gt;&lt;br&gt;ScaledObject" style="sketch=0;html=1;dashed=0;whitespace=wrap;fillColor=#2875E2;strokeColor=#ffffff;points=[[0.005,0.63,0],[0.1,0.2,0],[0.9,0.2,0],[0.5,0,0],[0.995,0.63,0],[0.72,0.99,0],[0.5,1,0],[0.28,0.99,0]];verticalLabelPosition=top;align=center;verticalAlign=bottom;shape=mxgraph.kubernetes.icon;prIcon=crd;labelPosition=center;" vertex="1" parent="1">
          <mxGeometry x="670" y="228" width="50" height="48" as="geometry" />
        </mxCell>
        <mxCell id="wNOov2tvG_YunCxTbI9r-17" value="" style="edgeStyle=orthogonalEdgeStyle;rounded=0;orthogonalLoop=1;jettySize=auto;html=1;" edge="1" parent="1" source="wNOov2tvG_YunCxTbI9r-5" target="wNOov2tvG_YunCxTbI9r-6">
          <mxGeometry relative="1" as="geometry" />
        </mxCell>
        <mxCell id="wNOov2tvG_YunCxTbI9r-5" value="&amp;lt;&amp;lt;CRD&amp;gt;&amp;gt;&lt;br&gt;SecurityGroupPolicy" style="sketch=0;html=1;dashed=0;whitespace=wrap;fillColor=#2875E2;strokeColor=#ffffff;points=[[0.005,0.63,0],[0.1,0.2,0],[0.9,0.2,0],[0.5,0,0],[0.995,0.63,0],[0.72,0.99,0],[0.5,1,0],[0.28,0.99,0]];verticalLabelPosition=bottom;align=center;verticalAlign=top;shape=mxgraph.kubernetes.icon;prIcon=crd" vertex="1" parent="1">
          <mxGeometry x="350" y="360" width="50" height="48" as="geometry" />
        </mxCell>
        <mxCell id="wNOov2tvG_YunCxTbI9r-13" value="" style="edgeStyle=orthogonalEdgeStyle;rounded=0;orthogonalLoop=1;jettySize=auto;html=1;" edge="1" parent="1" source="wNOov2tvG_YunCxTbI9r-6" target="wNOov2tvG_YunCxTbI9r-1">
          <mxGeometry relative="1" as="geometry" />
        </mxCell>
        <mxCell id="wNOov2tvG_YunCxTbI9r-6" value="&amp;lt;&amp;lt;Service&amp;gt;&amp;gt;&lt;br&gt;Microservice" style="sketch=0;html=1;dashed=0;whitespace=wrap;fillColor=#2875E2;strokeColor=#ffffff;points=[[0.005,0.63,0],[0.1,0.2,0],[0.9,0.2,0],[0.5,0,0],[0.995,0.63,0],[0.72,0.99,0],[0.5,1,0],[0.28,0.99,0]];verticalLabelPosition=bottom;align=left;verticalAlign=top;shape=mxgraph.kubernetes.icon;prIcon=svc;labelPosition=right;" vertex="1" parent="1">
          <mxGeometry x="350" y="228" width="50" height="48" as="geometry" />
        </mxCell>
        <mxCell id="wNOov2tvG_YunCxTbI9r-7" value="&amp;lt;&amp;lt;ServiceAccount&amp;gt;&amp;gt;" style="sketch=0;html=1;dashed=0;whitespace=wrap;fillColor=#2875E2;strokeColor=#ffffff;points=[[0.005,0.63,0],[0.1,0.2,0],[0.9,0.2,0],[0.5,0,0],[0.995,0.63,0],[0.72,0.99,0],[0.5,1,0],[0.28,0.99,0]];verticalLabelPosition=bottom;align=center;verticalAlign=top;shape=mxgraph.kubernetes.icon;prIcon=sa" vertex="1" parent="1">
          <mxGeometry x="490" y="360" width="50" height="48" as="geometry" />
        </mxCell>
        <mxCell id="wNOov2tvG_YunCxTbI9r-11" value="" style="edgeStyle=orthogonalEdgeStyle;rounded=0;orthogonalLoop=1;jettySize=auto;html=1;" edge="1" parent="1" source="wNOov2tvG_YunCxTbI9r-9" target="wNOov2tvG_YunCxTbI9r-6">
          <mxGeometry relative="1" as="geometry" />
        </mxCell>
        <mxCell id="wNOov2tvG_YunCxTbI9r-24" style="edgeStyle=orthogonalEdgeStyle;rounded=0;orthogonalLoop=1;jettySize=auto;html=1;exitX=0.5;exitY=0;exitDx=0;exitDy=0;exitPerimeter=0;entryX=0;entryY=0.5;entryDx=0;entryDy=0;entryPerimeter=0;dashed=1;" edge="1" parent="1" source="wNOov2tvG_YunCxTbI9r-9" target="wNOov2tvG_YunCxTbI9r-26">
          <mxGeometry relative="1" as="geometry">
            <mxPoint x="336.75" y="46.5" as="targetPoint" />
          </mxGeometry>
        </mxCell>
        <mxCell id="wNOov2tvG_YunCxTbI9r-9" value="&amp;lt;&amp;lt;CRD&amp;gt;&amp;gt;&lt;br&gt;TargetGroupBinding" style="sketch=0;html=1;dashed=0;whitespace=wrap;fillColor=#2875E2;strokeColor=#ffffff;points=[[0.005,0.63,0],[0.1,0.2,0],[0.9,0.2,0],[0.5,0,0],[0.995,0.63,0],[0.72,0.99,0],[0.5,1,0],[0.28,0.99,0]];verticalLabelPosition=bottom;align=center;verticalAlign=top;shape=mxgraph.kubernetes.icon;prIcon=crd" vertex="1" parent="1">
          <mxGeometry x="210" y="228" width="50" height="48" as="geometry" />
        </mxCell>
        <mxCell id="wNOov2tvG_YunCxTbI9r-21" value="" style="shape=image;aspect=fixed;image=data:image/svg+xml,PD94bWwgdmVyc2lvbj0iMS4wIiBlbmNvZGluZz0idXRmLTgiPz4NCjwhLS0gR2VuZXJhdG9yOiBBZG9iZSBJbGx1c3RyYXRvciAxOS4wLjEsIFNWRyBFeHBvcnQgUGx1Zy1JbiAuIFNWRyBWZXJzaW9uOiA2LjAwIEJ1aWxkIDApICAtLT4NCjxzdmcgdmVyc2lvbj0iMS4xIiBpZD0iTGF5ZXJfMSIgeG1sbnM9Imh0dHA6Ly93d3cudzMub3JnLzIwMDAvc3ZnIiB4bWxuczp4bGluaz0iaHR0cDovL3d3dy53My5vcmcvMTk5OS94bGluayIgeD0iMHB4IiB5PSIwcHgiDQoJIHZpZXdCb3g9IjAgMCAzMDQgMTgyIiBzdHlsZT0iZW5hYmxlLWJhY2tncm91bmQ6bmV3IDAgMCAzMDQgMTgyOyIgeG1sOnNwYWNlPSJwcmVzZXJ2ZSI+DQo8c3R5bGUgdHlwZT0idGV4dC9jc3MiPg0KCS5zdDB7ZmlsbDojMjUyRjNFO30NCgkuc3Qxe2ZpbGwtcnVsZTpldmVub2RkO2NsaXAtcnVsZTpldmVub2RkO2ZpbGw6I0ZGOTkwMDt9DQo8L3N0eWxlPg0KPGc+DQoJPHBhdGggY2xhc3M9InN0MCIgZD0iTTg2LjQsNjYuNGMwLDMuNywwLjQsNi43LDEuMSw4LjljMC44LDIuMiwxLjgsNC42LDMuMiw3LjJjMC41LDAuOCwwLjcsMS42LDAuNywyLjNjMCwxLTAuNiwyLTEuOSwzbC02LjMsNC4yDQoJCWMtMC45LDAuNi0xLjgsMC45LTIuNiwwLjljLTEsMC0yLTAuNS0zLTEuNEM3Ni4yLDkwLDc1LDg4LjQsNzQsODYuOGMtMS0xLjctMi0zLjYtMy4xLTUuOWMtNy44LDkuMi0xNy42LDEzLjgtMjkuNCwxMy44DQoJCWMtOC40LDAtMTUuMS0yLjQtMjAtNy4yYy00LjktNC44LTcuNC0xMS4yLTcuNC0xOS4yYzAtOC41LDMtMTUuNCw5LjEtMjAuNmM2LjEtNS4yLDE0LjItNy44LDI0LjUtNy44YzMuNCwwLDYuOSwwLjMsMTAuNiwwLjgNCgkJYzMuNywwLjUsNy41LDEuMywxMS41LDIuMnYtNy4zYzAtNy42LTEuNi0xMi45LTQuNy0xNmMtMy4yLTMuMS04LjYtNC42LTE2LjMtNC42Yy0zLjUsMC03LjEsMC40LTEwLjgsMS4zYy0zLjcsMC45LTcuMywyLTEwLjgsMy40DQoJCWMtMS42LDAuNy0yLjgsMS4xLTMuNSwxLjNjLTAuNywwLjItMS4yLDAuMy0xLjYsMC4zYy0xLjQsMC0yLjEtMS0yLjEtMy4xdi00LjljMC0xLjYsMC4yLTIuOCwwLjctMy41YzAuNS0wLjcsMS40LTEuNCwyLjgtMi4xDQoJCWMzLjUtMS44LDcuNy0zLjMsMTIuNi00LjVjNC45LTEuMywxMC4xLTEuOSwxNS42LTEuOWMxMS45LDAsMjAuNiwyLjcsMjYuMiw4LjFjNS41LDUuNCw4LjMsMTMuNiw4LjMsMjQuNlY2Ni40eiBNNDUuOCw4MS42DQoJCWMzLjMsMCw2LjctMC42LDEwLjMtMS44YzMuNi0xLjIsNi44LTMuNCw5LjUtNi40YzEuNi0xLjksMi44LTQsMy40LTYuNGMwLjYtMi40LDEtNS4zLDEtOC43di00LjJjLTIuOS0wLjctNi0xLjMtOS4yLTEuNw0KCQljLTMuMi0wLjQtNi4zLTAuNi05LjQtMC42Yy02LjcsMC0xMS42LDEuMy0xNC45LDRjLTMuMywyLjctNC45LDYuNS00LjksMTEuNWMwLDQuNywxLjIsOC4yLDMuNywxMC42DQoJCUMzNy43LDgwLjQsNDEuMiw4MS42LDQ1LjgsODEuNnogTTEyNi4xLDkyLjRjLTEuOCwwLTMtMC4zLTMuOC0xYy0wLjgtMC42LTEuNS0yLTIuMS0zLjlMOTYuNywxMC4yYy0wLjYtMi0wLjktMy4zLTAuOS00DQoJCWMwLTEuNiwwLjgtMi41LDIuNC0yLjVoOS44YzEuOSwwLDMuMiwwLjMsMy45LDFjMC44LDAuNiwxLjQsMiwyLDMuOWwxNi44LDY2LjJsMTUuNi02Ni4yYzAuNS0yLDEuMS0zLjMsMS45LTMuOWMwLjgtMC42LDIuMi0xLDQtMQ0KCQloOGMxLjksMCwzLjIsMC4zLDQsMWMwLjgsMC42LDEuNSwyLDEuOSwzLjlsMTUuOCw2N2wxNy4zLTY3YzAuNi0yLDEuMy0zLjMsMi0zLjljMC44LTAuNiwyLjEtMSwzLjktMWg5LjNjMS42LDAsMi41LDAuOCwyLjUsMi41DQoJCWMwLDAuNS0wLjEsMS0wLjIsMS42Yy0wLjEsMC42LTAuMywxLjQtMC43LDIuNWwtMjQuMSw3Ny4zYy0wLjYsMi0xLjMsMy4zLTIuMSwzLjljLTAuOCwwLjYtMi4xLDEtMy44LDFoLTguNmMtMS45LDAtMy4yLTAuMy00LTENCgkJYy0wLjgtMC43LTEuNS0yLTEuOS00TDE1NiwyM2wtMTUuNCw2NC40Yy0wLjUsMi0xLjEsMy4zLTEuOSw0Yy0wLjgsMC43LTIuMiwxLTQsMUgxMjYuMXogTTI1NC42LDk1LjFjLTUuMiwwLTEwLjQtMC42LTE1LjQtMS44DQoJCWMtNS0xLjItOC45LTIuNS0xMS41LTRjLTEuNi0wLjktMi43LTEuOS0zLjEtMi44Yy0wLjQtMC45LTAuNi0xLjktMC42LTIuOHYtNS4xYzAtMi4xLDAuOC0zLjEsMi4zLTMuMWMwLjYsMCwxLjIsMC4xLDEuOCwwLjMNCgkJYzAuNiwwLjIsMS41LDAuNiwyLjUsMWMzLjQsMS41LDcuMSwyLjcsMTEsMy41YzQsMC44LDcuOSwxLjIsMTEuOSwxLjJjNi4zLDAsMTEuMi0xLjEsMTQuNi0zLjNjMy40LTIuMiw1LjItNS40LDUuMi05LjUNCgkJYzAtMi44LTAuOS01LjEtMi43LTdjLTEuOC0xLjktNS4yLTMuNi0xMC4xLTUuMkwyNDYsNTJjLTcuMy0yLjMtMTIuNy01LjctMTYtMTAuMmMtMy4zLTQuNC01LTkuMy01LTE0LjVjMC00LjIsMC45LTcuOSwyLjctMTEuMQ0KCQljMS44LTMuMiw0LjItNiw3LjItOC4yYzMtMi4zLDYuNC00LDEwLjQtNS4yYzQtMS4yLDguMi0xLjcsMTIuNi0xLjdjMi4yLDAsNC41LDAuMSw2LjcsMC40YzIuMywwLjMsNC40LDAuNyw2LjUsMS4xDQoJCWMyLDAuNSwzLjksMSw1LjcsMS42YzEuOCwwLjYsMy4yLDEuMiw0LjIsMS44YzEuNCwwLjgsMi40LDEuNiwzLDIuNWMwLjYsMC44LDAuOSwxLjksMC45LDMuM3Y0LjdjMCwyLjEtMC44LDMuMi0yLjMsMy4yDQoJCWMtMC44LDAtMi4xLTAuNC0zLjgtMS4yYy01LjctMi42LTEyLjEtMy45LTE5LjItMy45Yy01LjcsMC0xMC4yLDAuOS0xMy4zLDIuOGMtMy4xLDEuOS00LjcsNC44LTQuNyw4LjljMCwyLjgsMSw1LjIsMyw3LjENCgkJYzIsMS45LDUuNywzLjgsMTEsNS41bDE0LjIsNC41YzcuMiwyLjMsMTIuNCw1LjUsMTUuNSw5LjZjMy4xLDQuMSw0LjYsOC44LDQuNiwxNGMwLDQuMy0wLjksOC4yLTIuNiwxMS42DQoJCWMtMS44LDMuNC00LjIsNi40LTcuMyw4LjhjLTMuMSwyLjUtNi44LDQuMy0xMS4xLDUuNkMyNjQuNCw5NC40LDI1OS43LDk1LjEsMjU0LjYsOTUuMXoiLz4NCgk8Zz4NCgkJPHBhdGggY2xhc3M9InN0MSIgZD0iTTI3My41LDE0My43Yy0zMi45LDI0LjMtODAuNywzNy4yLTEyMS44LDM3LjJjLTU3LjYsMC0xMDkuNS0yMS4zLTE0OC43LTU2LjdjLTMuMS0yLjgtMC4zLTYuNiwzLjQtNC40DQoJCQljNDIuNCwyNC42LDk0LjcsMzkuNSwxNDguOCwzOS41YzM2LjUsMCw3Ni42LTcuNiwxMTMuNS0yMy4yQzI3NC4yLDEzMy42LDI3OC45LDEzOS43LDI3My41LDE0My43eiIvPg0KCQk8cGF0aCBjbGFzcz0ic3QxIiBkPSJNMjg3LjIsMTI4LjFjLTQuMi01LjQtMjcuOC0yLjYtMzguNS0xLjNjLTMuMiwwLjQtMy43LTIuNC0wLjgtNC41YzE4LjgtMTMuMiw0OS43LTkuNCw1My4zLTUNCgkJCWMzLjYsNC41LTEsMzUuNC0xOC42LDUwLjJjLTIuNywyLjMtNS4zLDEuMS00LjEtMS45QzI4Mi41LDE1NS43LDI5MS40LDEzMy40LDI4Ny4yLDEyOC4xeiIvPg0KCTwvZz4NCjwvZz4NCjwvc3ZnPg0K;" vertex="1" parent="1">
          <mxGeometry x="184.70000000000002" y="408" width="75.3" height="45" as="geometry" />
        </mxCell>
        <mxCell id="wNOov2tvG_YunCxTbI9r-23" style="edgeStyle=orthogonalEdgeStyle;rounded=0;orthogonalLoop=1;jettySize=auto;html=1;entryX=0.5;entryY=0;entryDx=0;entryDy=0;entryPerimeter=0;exitX=0.5;exitY=1;exitDx=0;exitDy=0;exitPerimeter=0;" edge="1" parent="1" source="wNOov2tvG_YunCxTbI9r-26" target="wNOov2tvG_YunCxTbI9r-6">
          <mxGeometry relative="1" as="geometry">
            <mxPoint x="375" y="90" as="sourcePoint" />
          </mxGeometry>
        </mxCell>
        <mxCell id="wNOov2tvG_YunCxTbI9r-25" value="EKS" style="sketch=0;points=[[0,0,0],[0.25,0,0],[0.5,0,0],[0.75,0,0],[1,0,0],[0,1,0],[0.25,1,0],[0.5,1,0],[0.75,1,0],[1,1,0],[0,0.25,0],[0,0.5,0],[0,0.75,0],[1,0.25,0],[1,0.5,0],[1,0.75,0]];outlineConnect=0;fontColor=#232F3E;gradientColor=#F78E04;gradientDirection=north;fillColor=#D05C17;strokeColor=#ffffff;dashed=0;verticalLabelPosition=bottom;verticalAlign=top;align=center;html=1;fontSize=12;fontStyle=0;aspect=fixed;shape=mxgraph.aws4.resourceIcon;resIcon=mxgraph.aws4.eks;" vertex="1" parent="1">
          <mxGeometry x="110" y="130" width="40" height="40" as="geometry" />
        </mxCell>
        <mxCell id="wNOov2tvG_YunCxTbI9r-26" value="AWS ELB" style="sketch=0;points=[[0,0,0],[0.25,0,0],[0.5,0,0],[0.75,0,0],[1,0,0],[0,1,0],[0.25,1,0],[0.5,1,0],[0.75,1,0],[1,1,0],[0,0.25,0],[0,0.5,0],[0,0.75,0],[1,0.25,0],[1,0.5,0],[1,0.75,0]];outlineConnect=0;fontColor=#232F3E;gradientColor=#945DF2;gradientDirection=north;fillColor=#5A30B5;strokeColor=#ffffff;dashed=0;verticalLabelPosition=top;verticalAlign=bottom;align=center;html=1;fontSize=12;fontStyle=0;aspect=fixed;shape=mxgraph.aws4.resourceIcon;resIcon=mxgraph.aws4.elastic_load_balancing;labelPosition=center;" vertex="1" parent="1">
          <mxGeometry x="355" y="50" width="40" height="40" as="geometry" />
        </mxCell>
        <mxCell id="wNOov2tvG_YunCxTbI9r-28" value="" style="shape=image;aspect=fixed;image=data:image/png,iVBORw0KGgoAAAANSUhEUgAAAnEAAAJxCAYAAAAtjeQ4AAAAGXRFWHRTb2Z0d2FyZQBBZG9iZSBJbWFnZVJlYWR5ccllPAAAVbpJREFUeNrs3Q2QHGl95/l/ZlW33qWaVzHSwJQwY2CNUc+we8TtXqxKEXe354h1RMsbYBvWQbeBGdizkGQwZm2DWgZzPmNQC+EFBox6DvO+azV4z3bsXlgl7gy290bTmuEwMwOoNC/SvEqtVr9WV+Vzz1OVrenR9Ft1Z+bzZOb3Y1eUhhl1VT+Z+Ty/fPJ5EQEAAAAAAAAAAAAAAAAAAAAAAAAAAAAAAAAAAAAAAAAAAAAAAAAAAAAAAAAAAAAAAAAAAAAAAAAAAAAAAAAAAAAAAAAAAAAAAAAAAAAAAAAAAAAAAAAAAAAAAAAAAAAAAAAAAAAAAAAAAAAAAAAAAAAAAAAAAAAAAAAAAICbPIoAgOvu3n+hot969Gu3fpXnvZZSm/c6q18jZ47vqFKaAAhxABBfaDMBrVe/9oTvURrWr9PmXYe6GqUNgBAHAGsLbqUwsB2Qdq9bEkb061gY6EY5CgAIcQDQWXg7GIa3kqWvMRqGuUHCHABCHAC4H94IcwAIcQDQQYDr029HHQpvC4W5QzrIDXG0ABDiABDe2hMWTuhXJSVfuapf/UyAAECIA5DnANcbBrhSyr76aBjkhjmKAFziUwQAEghw5tHpyRQGOAm/88nwdwAAZ9ATByDO8FYKw1slI79SVb/2MekBACEOQNYD3ClJbs23pJi15fYS5AAQ4gAQ4AhyAECIA0CAI8gByAMmNgCI2skcBDgJf8eTHG4AhDgAqRfO4Kzk6FeuMGsVgC08TgUQVYAz68DltWdqH+vIASDEAUhjgCvrtwclnevARcGMi7uLnR0AJInHqQCikMadGKJUCssAAAhxANIh3My+Qkm0xsf1UQwAksLjVABrCXCmB+qc5LsXbj7zWHUXy44ASAI9cQDW4iAB7iVKYZkAQOzoiQOwKvTCLYreOACJoCcOwGrRC7cweuMAJIKeOAAdoxduWfTGAYgdPXEAVqOXALekUlhGAECIA+CUAxQBZQTALh6nAuhIuDvDOUpiRXaxiwOAuNATB6BTPCakrAAQ4gCk0B6KgLICQIgDkD70LlFWAAhxANLk7v0XKpRCZ/7V713soxQAEOIAWHPoC8+Wt9/gMeOyQ1s3eSd02Z3SL8IcgEgxOxXAsuFNvx3Wr75Hngjk6csBhdKBV9zgy2tfee1+uaZfR46++9YhSgYAIQ5A7OFt7n87+9OmjI4rCqcDpc2e7H514fr/uRXm9GtYBzp2dQBAiAMQSXirSHuh2pcNyv/7HzVluk6I68T6bk/e/LrCYv/aBLhj+jVImANAiAOwlvBmet4qi/03px9qUFCrsOeNxeX+E8IcAEIcgI7Dm+lxO7BUeCPExR7i5huS9ri5GiUHgBAHYKHw1iftnrfySv8OIS6REEeYA0CIAxBNeCPErc2bX1eU9d2r/uvD+nVMh7kqJQmAEAfkL7iVpD3L9MBqwpsxXTcTGwhxq7HKnrjrmRB3hDAHgBAH5Ce8HQzDW2mtP4+eOKshbn6Yu5+15gAQ4gDCGyEuXSFuTk1YOBggxAHISHi77+UL9Ebp9MOEuFWFuJ8vxvnjW2FOzMLB97A8CUCIA0B4W8DfP8Jiv51qLfb72kISH/XiWnOEOYAQB8BtB+9rLdD7jrjD25yHzLZbE4S4TpQ2efLGVxeS/MhrYW6QMAcQ4gA4Gd6W3F0hDo88GcgzlwMOQAe23+DLa2/3bXy0CXBmeZIjOszVOBIAIQ5ADsPbnKeeD+QnFwlxnfiZ23zZebNv+2sMEeYAQhwAO+GtT9ozTXtsfo8rE0rO/rTJAenA7lcXZNsmZ6paE+bu12GuypEBCHEA4g9vq9pdIS7fZYZqR/5lvDNTV8uEuCOEOYAQByDa4GbWdet1LbzN+f/ON+WFMSY3rMRNWz35uTsKLn9FE+KO6TA3zNECCHEA1hbeIl+gN2qMi1s5R8bDrURN2j1zQxw1gBAHIGPhbY7ZQ/UfHuGR6kr8d69d08b3hDkAhDjA0fBWDoNbXxrC23xnHmvK+DSPVJeyeb0nd99ZSOvXZ605gBAHYJHwFvvuCnF65rKSR55klupSXnt7QbbfkPoqljAHEOIAZCG8zWk0249UG+S4BRUL7UepxUJmfiUWDgYIcUAOw9vnn63oK83aAr1xOf9MIOefZYLDQu641Zc7tvtZ/fWGROkwdy9hDiDEAVkOb5K98Dan1Rv3KL1x12v1wv1spnrhFg9zZuHge1lrDiDEAdkJb33S3pS+kvXf1fTE0Rv3Uq1euFv9PP3KJsQdIcwBhDgg7eHNyQV640Jv3EvlqBdusTB3TIc5Fg4GCHFAWsLbM2F488p5/P2fGQ3kkSfpjTNee7sv20t+zktB1aTVM7d9iDMCIMQBLga3uQV6zWPTct7L46FzgYxO5HvduNImT964y+fieBFhDiDEAe448GJ4O+ClbIHeOE3VpfbfHm2a8shrmYzecau/745bPRPq+zgjXqTmrTV37N7trDUHEOKAxMNbOWycU7E1VoJq+nVEN85Dd++/0Kv/fDKn5bDvzPEdw/POlUysBxh10CXMAYQ4IOnwRoO8RHib/z/qIHdU2j2VeTKoA9whgn9HYW44PH9qFAdAiAMIb8moho1vdbH/QAe5U5KD5VXmykMHuL3LnEvXHsET5l5miDAHEOKAqMKbCR+Ma1pFeJsX4kxQMUGuJ+NlMqJfe3WIG13huVWSF3vmypxSLwtz96/k/AJAiAMWCm+Z3V0h6cY1B0GuowC3wPnWJzlbUzDqmwUAhDgQ3ghvi4e3NT3mynCQW1OAWyDMHZDs91quJswd0+cfCwcDhDhgwcaTnpAYwtsCQe5khkKyCRf7oghw3EysSE0WmEADgBAHwhva5pZ+GIprgHlGZq0uOAuVMEeYAwhxQHwNIwPKlw5viazbFa4jd0LSN0PTlE3/3DpwCZ2zZWF2tPVzFiDEAbbC2+dY2mERNX3l32+jIdRBrhwGuUpKyqoaBriapRuQsijC3JJh7j2EORDiAMJbHsKbeST1HvuPpHSYM6HkqMPHxwSDQzq8DTlyTpeFhYMXO07D4XldozhAiAPSG95MQ2d6LXpp6NwMb9cFORfD9rUenqgnL3CDErshwhwIcUB6w1sfpfESVTFrvL3H7cHgjoQ5p8PbImGuTxjnuViYM+d9laIAIQ5wtyHrCRsxwtvLw9uRtDViYZjrlWTXTRsJw9twGsLbItdBnzDjOjPXAUCIQ9bDW0VYhiHTjVY4AcIEuj3he5TMGKrTYXCrZei66BMWDl7sujimrwsWDgYhDrDlfYS3xQyZ8PbpDI8F0qGuEoaT3dLucZp7LaU273VWv0Z0aKtyneRWLbxOhigKEOKA5BqlPmlvSk+jlLPw1kHIM49iS1nqWSPMEeYAQhzSHt4Y6/NSo2F4O0Z4wwqvI8aOLh7mWuslfpq15kCIAwhvMYe3YzQ4WMN1VRZmcXNtgRAHxNDAsP4VDQySC3NzPXNcay+91oaEXm4Q4gDC2xqZRuSIfg0T3sC1lzgT5hhvCkIcQG9A5+GNQdewEObM5KEyJfKyMGd65kYoChDiQIPxWR3ePMblLGAkbCwIb7AZ6Mx1yXjUl6uK0jdX72XhYBDikNfwxqDqhRsHoXGAc9crYY7rFYQ40Bi01qoyj017KQ0aA6Ty+mWtuZerhdfvEEUBQhyo/PPDVPr3E97A9UyYAwhxcK2yn9vAnMr+5eHNVPY1igIpvr5ZOHjxMNdeOPi9zCYHIQ7pq9z7hDE0hDfk5XovC2NcF/Liuo6EORDiQHijIgccD3MsFbRwHWBu4I5xAwdCHFyruEthpX2A8EZ4A8I6gYWDF2bCHL3xIMSl3d37L1T0mxlTsjsMP+UVhKDavNdZ/Ro5c3xHlYraKbUwvA0R3kCYY+HgJcKc6ZmzunBw2tshEOKSvFjMhWEG+u+R6JfYGNav0+ZdX0yx3uER3pas2JiZBixcb/QJQy0WUpUElxfKSjsEQlxSwa0UXigHwrudJLRW+w8vpMh6gvaHg5c9Bi8T3gDCXKRUGOaOxxDmstQOgRCXZHiz3Vt1bUzWWi6i/cw8W+oO+piudIcpCqDjeqUirDW36E3h8QhuCrPUDoEQl6fwFslFFFay7yC8LRjeYrljBghzWGuYy1I7BEJckgHOhJ2j4u44MXPhHNIX0BCV6qqYHrdjhDcgljDHwsGLh7nWwsHHVzBRKivtEAhxSYa3sn47kaLQY0JI//UDT/f/B8LbIob0lWHuiGsUBRB7mCuLYvjGIuGn1ZN1/N+9PMxlpR0CIS7pANcbXjilFFYI5gIa1uGtT5Id8Jqe8GYeZ/w7whuQeJj7DywcvETdbeqmY3N1UxbaIQ4rIc5GgDNd1gfT/Dvcss2r/ewOv8zRXLyCBGA1zLGk0RI3mn/7j83RtLdD0h4nd4jDSYhLKryZiuSkZOSx47aNnrzudl+KhdyHt0UfVQBwJsyxcLDWaIr86MlArkyqrPxKVf3ax6QHQlwSAe6UZOzR46b1nrzhVbkMcoQ3IH2Brk9yvNacCXA/eDyQiWmVtV/NrC23lyBHiCPAEeSWU5P2eLchzmyAMEeAI8gR4ghwBDnCG4Dkw1xFcjCzPgcBjiBHiIstxJ2SnCy9YcbIveEOP2u/VlW/7ie8AYS5tPrB+UyNgVu2ztYhbi9nNSEuigCX+lmondpxoye7tmciyJnwZnreqpzJQG7CXOYWDj73TCAXLqm8HUpmrRLi1hzgzPo7J/P4u7/+dl9u3JLaU4LwBhDmypKBfZ8vXVXyj08GeT2M+1hHjhC32gBnKoAHJadrE5lxcT27CrKuK1Vfe0jaa7yNcAYDmBfmUrlw8MysyMi5Zms8XE6ZcXF3sbMDIW41IS434+AWk6LxcSa8sbsCgKXCXOoWDs7ZOLjFMD6OENdxgDN3bCcoCZE7d3hy6zYnTw1zhzbcDm+vILwBWGGYezoVCwc/e0XJYxcUB6zNbM81RDEQ4lYS4MwFfk7Y4qXFPFZ90884tezIvAV6X8EUdABrCXTmht25tebM49MHfhLk+THqQvX+LpYdWaa9pghaDhLgXlqZXLis5JU3ey5cxK3w9hnCG4AI6BvBIf029BuOhTlT5xLgXmKu93SAolhc7nvi6IVbJN0XdNnY642rheFtiPAGIE46zJkVCcyYuYrNG+cz9MItdiNPb9xSbTVFQC/cYpXKxUuJ98aZ8HbkM/9r604ZAGKnbxTNONvh3/iTp02Is7JwsKlrCXALojduGbnuiaMXbpmEP9cbF/9kVcIbACeEYc5MgOhL5IY5oBduGfTGLcHP+e/fS4BbonJpthedjFFVv/bq8LaLAAfABbouqupXvwkO0l7KKFamjiXALakUttVYQN574szCvj2cBovbtF5kdznyrG/Cm+l5q1LCAFz2G3/ydFnaj1ljuek/WzMb3FPOyxg5c3zHXRQDIW5+gDMX5jlOgeWZ5UYi2sXB3NXeT3gDkMIwF/nCwWZ3BrOsCFZkF7s4vFyeH6fSPbtCl8bX/EjVhDfzyLSfAAcgjXTdNapfA9J+zHpE2mO1bNettNk5l+fZqXs4/CtzZVLkthtWHd7MY1PungBkJsxJe7bkwG/8ydrWmjN1KzpqswcphpfK8+NUboE68M9ft+JO27kFeocIbwDyYLVh7ns/4lFqJ84c38EuU4S4VoCr6LdTHP6Ve8OrfNm6cUXhbTC8UwWAvIW5FS8cPDYp8oPHCXEd2quDXJVieFFeH6cyI7VDEzNKh7gFM39Nv+4nvAHIO10HrnjhYFOnYlVtNyGOECe7OfQdhrjpBcMbC/QCwMvDnAka1aUWDmZZEdpuQtzqlTn0nTFT4QlvALCqMGdmsx6eH+bm1amg7SbEcSLEa3rWdP17/YQ3AOg4zJmb3/55Ya5X16nsFkTbvWZ5ndjAYIRVYGYQAKydWTj4ez8KLlMStENr5VMEAAAkh0lgIMQBAAAQ4oDlhfvNAgBAO0SI4wRIEzYfBgDaIdohQhwnAACAIAIQ4gAAAAhxAAAAIMQ5qcahp8wAgDqVMiPEcSJQZgAA6lTKjBDHiUCZAQB1KigzQtxCznLoKTMAoE6lzAhx6TPCoafMAIA6lTJLs9xuJHv3/guKw79ybDoMALRDtENuyfMSI8McfsoKAKhbKStCXPqc5vBTVgBA3UpZEeJI9ZQVAIC6lbIixMUt3LuOQZLLG2GfPwCgHaIdIsS55hinAGUEANSxlBEhLn1M9+wop8GiRoUubACgHaIdIsS55szxHaMk/KXvfsIyAgDQDtEOEeKcM8hd0KJ3P4MUAwDQDtEOEeK4C+LuBwBAO0Q7RIjjLoi7HwCgHaIdIsRxFyRyiJK45hB3PwBAO0Q75Db2IZvn7v0XTum3Ss6LoaovnL2cDQBAO0Q75DZ64l6qX/LdnT0algEAgHaIdogQlx7hitB5Pnn6WRUbAGiHaIcIcWm9gMyignkcTDkY/u4AANoh2qEUYEzcInI2LoHxBwBAO0Q7lDL0xC1un+RjY+KR8HcFANAO0Q6lCD1xS98FlfSbuRPqyfCFs5dp3ABAO0Q7RIjjAuLCAQDQDtEOJYDHqcsITy7znL6aoV+ryoUDALRDtEPpRk9cZ3dDR/XbwZT/Gmb2D6uCAwDtkBW3lUT+z4/uIH8Q4qxcQL0FX042g9R99dYCikzfBoD0t0P67YR+ldL0vXXbKT+z3ZMbNrf+ce9n33dblaO5NjxO7dCb7/RGfv5VnmzdkKqvbS6UuwhwAJB+YV1+l6To8appM03bGQY4o4cjSYizoWddl8jrb/fk1fqOouB2Cc71vu1lBWwAyFSQq4Xrqjm9TZdpI01badpM03bOs4ejSIiz4dqJd8tWfSu0y5Pbb3IuzJkL+oh+7dIX+RCHDAAyG+ZMHb8rrPOdCXOmTTRto2kjTVu5gApHb+0YE9eh93764oOyQDewGSP3tL58Ll5WYnG8nLmAj0l78gIzfgAgR8KlSMykhwNiabycCW+33eDJK0qyks6Nuz77vttGOHKrV6QIOtaz2Im780bRJ64nl8ZNoFMyOZPYdxoJw9sw4Q0A8ims/wd0mDP7rvaGYS6RsWcb17Xbvxs3SydPpnokHztSxIaeuA6899MXK9JecHFFZmZFLk+IjE0puTwe+dcxA1tPh8GtxtEBAFxPB7pyGOj2hO+RMZMUtm7w5IZNcv14t5Ua+uz7buvnKK0ePXGdqXTyH5uT2nQpm7sTY2xKWr1zkzOqFfBmGu2gt9zPWKeP0lRdhmebrdA2okNblUMBAFhOeJM/GL5MqDPtmOkB261f5XmvZdsh875xndfqdYtohYYKR2ht6InrwHuPXTwV50lnxtI1gvbFssCR2qXvWGocBQBAXG3bku1QPG747IHbGAa0SsxO7UysYwvMOIJFLpwaAQ4AEJORFbRDcalQ/IS4JO5UTICztTp2lSMAAIjJaYufzXpxhLjM3y2cpfgBADGp5rRtJcTlyO6cXmAAgAwLx6TZWuqD7bcIcdm+W9AXGOvoAADiZK2dee+xixWKnxAX5wlWlmWmYMeoyhEAAMTM5rg4QhwhLlY9Ob2wAAD5ULX42UxuIMRl9gSrUvwAgDh99kBrGauapY+vcAQIcVk9wRgPBwDIdHsTLuMFQlz0lEiPar8n/RphJWsAQEJt3WlLbZ15VTgChLjIvcfurJkqRwAAkIM2h3FxhLhY2AxxLPILAEjE59rLWdl6+lPhCBDisnZ3UKX4AQAJsjUurvSe9nJeIMRFSEmPpQECtc8dYNN7AECibd5psTcwrsIBIMRF5j2DVje9Z1YqACBpVYufzbg4QlykbN4VsMgvACBRnzt4m80QV+EIEOKixKb3AIC8sdX+lN8zeLFE8RPiUn9XoO+GeJwKALDBZvtTofgJcWum7wbKwqb3AID8sTmch3FxhLhIsOk9ACCPqhY/u0LxE+LSfjdQpfgBADZ87mBru0dbj1TZQ5UQl/q7AcbDAQBsstYOvWfQ6naXhLiMsHU3MBLeBQEAYIvNYT2EOEJcau8CqhwBAIBlNtsiJjcQ4lJ7F8Cm9wAAqz53sLXtYy2HbTAhLgNY5BcAkHc2x8UxwYEQtzpKSUW/xMKrFt79AABguy08baktbLXDHAFCXMfuPcqm9wAACOPiCHEpxCK/AIDc+/whq9s/8jiVEJe69F+l+AEADrHVLpXvPdra/hKEuI5UcnrXAwDA9VgvjhCXDjr1m7FwtpJ/lSMAAHCMzbaJcXGEuNSkfsbDAQCc8vlDt9kMcYyLI8SlJvVXKX4AgINsDfXpCZ+QgRDnfOpnPBwAwEVVi59dofgJca6fLCOfP8Sm9wAAJ9kc7sO4OELc8u49yqb3AAA41kYxLo4QtyI2Qxyb3gMAnBQ+KarlsG0mxKWH2q1fYulVpfwBAA63kVVbbeS9Ry8Q5Ahxzqb92ucP7ahR/AAAh7HoLyHOTTrls+k9AACLq1r8bCY3EOKWxKb3AAAsInxiZGsVBSY3EOKWoHTKtzYcjp44AEAq2sqqpXaydO+nLhDkCHGLqli7u/nNHVWKHwCQAoyLI8S55Z5PXSjpoF+21BFHgAMApIJps+w9tGJcHCHOvXTPeDgAQCrc95s7bA7/4XEqIW5BNtM94+EAAGlStfS55Xs+daFM8RPiXEr3VYofAJAijIsjxDnF1kkxct9v7mDTewBAmlQtfjbj4ghxL7rnU1a38uBRKgAgVe6zu6IC4+IIcS9hM8QxqQEAkEa2OiF6zIoSFD8hbs5ui59d5fQDAKSQzfarQvET4myfDKP3/Sab3gMAUsnmkyTGxRHiWuPhbG56X+XUAwCklM02jHFxhDjrJwLj4QAAqRSurFCz9PEVjgAhrr3pvT3MTAUApFnV1gdbXlmCEOeIiq0N4O5j03sAQJopOS32NlIlxOU5xN3zydYU5XLe7l4AAMhAW8bkhjyHOGF9OAAAVu2+97dWWLC16xCTG3Ie4hgPBwDA2lQtfW7pnk9eIMjlOMSx6T0AAGtj88lSheIXKebxl1YWN73/wvvZ9B4AkIm21OaTpd0cgRz2xL37k2x6DwDAWn3h/VZXWqhwBPL5OJVFfgEAiIatIFd+9ycvlAlx+bMnhyc7AABxYFwcIS4XB330C+9n03sAQKZULX527sfF5SrEhV2vbHoPAEA0bI71rhDi8sXmAWc8HAAgU8IVF2wFuZ53t3dgIsTlBIv8AgAQrarFz64Q4vJCSY+tDXstT8UGACCutvW0rba11a4T4rLv3X/c6nK1dbAJcACArLL5pGlPngs+Tz1xFYufzXg4AEAmfeEDrZUXajls263L07ZbNrtcczEe7u79rd0wTkXxs84c3+El8H379NuJmD9mn/5dhiP6vgP67XCOrtmqLru9EZWdsnTdj4avs+E/1/TvxPjY6K9lcx33LfCv+nV5D1FCyVyvixyD2L37jy9UdJCsEuKyjUV+kXSA648qwCH1N46988690bBOOB0GVULd2q7lniXCg7npIcQl47StECft3rhctrM8Tk3gblzfIbDpvVuVfiWBAHeEHgAsohSGuqP69aA+H8/p11H9KlM0q3J0iX9X1uXaSxEl09ZZ/OzcLvqbixBnulpzemJj4bv2kzF/zJAOcAOUNlbIhLeD+mXC3INhLzFWfkO2XP1+gJKK3xc+sGNu+IANlbyWe1564tj0HnMBzozZi3NxyGEd4PopbayhrjoR9s4R5pa3kjGilTDsIX5VS59bevcfX8jlUiO5CHFKZI+9JWwYD+dIgDPB7WTMAc7ciRLgEIUyYW7Za9oEs5WGs8OUWCJt7WmLbW0ug3peeuJsHdzRL36ATe8dCXCnwoYxzgC398xxxj8iljD3YNiTjNUFswrllwjGxRHiovWuP2bTewJcK8DFWYGb4NZPgEOMzPlrgtxRiqLjXrg5jI2L2RftLvNRyWOZ56EnzuaBZTycfUcTCHB7WSYCCTlIr1zLah6P9jEDOBG2glw57LQhxGUMm97n9259sQVAo7SPAIeEtSbo5HWs3Cp74dYS/tAZm50XlbwVdvZDnMXNcb/4ATa9t1jRH00gwJlHqBxj2GCGCZzI6ePVtQQxeuPiZ69OVPkbF5fpEPeuT4Sb3tuZKkPjbi/AmfB2MOaPOcRivnDAwbDHOS/XdkXW3tvSx2kTa5AasTU9VeiJyxybB5RHbPYCXNyNmlnMd5DShiNM79KJcBJP1kXxOPRATsrKii/+VmuCl632ryfsvCHEZQSL/OYrwFUSCnCsBQfngpzEvxOJC9d3FDfmppE/yCkTq6rFz67kqaCzHuLY9D4/AS6J7bTM3eUhShuOqmT80WqUkxLojYuXzU6MXM3czniIUxVLa0fXwi5lJBfg4t5Oi8V8kQZ9WQxy4Sb2lQh/pKkr+jhdYmt7R6zt2yBqT55KOrMh7l2feKpi8eOrXMSJVe6tWXoxB7hRAhxSFuSy9rgwjlm4LP4bky/+1s6afqtZ+vhKnso6yz1xjIfLR4BLYjcGAhxSF3qysul7OFmpHMOPLrMvbayqtj7YcidOoooZ/t1Y5Df74g5wIm7txjAk+erldTE4H1rh9V0OX7vDc7Rs4bue1CFlVwZuQA7H/LOHqEpjcdbiZ/fkpa7McoizlcRHv/hbOwlx8d+dn0ggwPW7tBuD/i41sfeIAuEN2moWeA4XmDXjut4hyT0lmBtqsC/F13lfzAG41RvHmo+xsBmiTCdOLpaByuTj1Hd94qmysOl91gNcXwIBjoodkQVws7agft2l/3GXtHt/kugh6w0nBaRVEttkvYMzNHphZ4atXuBKXso5q2PibB7As1y+sQa4gQQC3BABDjEHuv4wzCXRW5DKhYAT6IW71l5kZfygg6qWPrf0rk88lYulRjIZ4pTIHmuTm+mJi7tSj/vOnMV8kVSYG9UvM8bO9M7F+di+JOnc+P1wRj8rN3R7eNZiW0yISzFrB+9Pf2snIS6+ABf3+ldVAhwshLmR8DHrkRg/5mCaNn5PsBduDr1xMdWpFj87F+vFZS7EvfMTT5UshjgCXDwVek8CAc70hOyjtGExzA2E52Bc44jS1Ntk47uyblzELHdq5CKUZ7EnzuaBY1ZqPAHuVMwfUxPWgoMbQW7YnIsxBbm+NPTGWeiFm9Obpt7KFLEV5MrvbE9yJMSlipIee7t9sMhvTAEu7t0Y9hHg4FCQG4kxyKWht+lwTj87m0y7aK9Nzvy4uCz2xLHpfTYCXJLbadGDirwEuT6XZ6pa7IWbXz5lzsBI2axfMz8ujsep0an96Qd30psTnSR2YzhEgIPjQe5QxD/WBDiX1407zHfInGoO8wAhbjXe+Udsep8hSezGMEQxw/EgZ87RqM9TJx+phmtAlh34Kr1pXFfPVWHnhq2b5R6dCzJ9LLPWE8em91iJIwQ4pIjpjatFWU+69sgwDE2uhEvzXQ5y2kWqmtNcQIjrEJveYzlD4VIOQCqEk26ifqzq2iPVg2Jvq8SFHKA3LlI2dzKqEOLSw1biHv3TD7LpfQoMs5gvUhrkzNIj1Qh/pDP7hTrWCzeH3rhoVS1+dqYnN2QmxL3zj1rrwZRzeIJiZUzIJsAhzaLc0aHHoZ4m13rh5rD4b0T+9IM7axLtkIBOVLJctsUM/S42DxSb3rsf4FK/mG84jqmcgeNhNoCvcVp2RpdZVZ8D1QjrOvNzhi2f0y72ws0pmSVPGD8bGXPu9tn4YDPpUQfJKiHObbstn5xw1/0ZWczXVIBZWP7A9CgNcFqu7lyOMMTtsR3ixN1euDnmeiPERcNmZ0dPVtvpLI2Jq9j64Kwm/AxhkDKyIsrQZXXWnuO9cHPK4QLEWDub7WRmx8VlIsSF68Cw6T0WrYiFQcrIgLBHOaogZ3vpBdd74eaw+G8Ewsl/tp6IVAhxbrNZGTErNR0OsJ0OMuLbEf2ckq0e6jh74bZs8GXHjYVIbwL1961w2kWiaulzS+/8o6cyuV5cVkKczQuMRX7TwTQaRykGZECUN462GrbYeuHeVtkkmzdE3rTRGxcN2+PiCHEuUkr26JdYelW5LlOjlztqpF3E+/0m3hMXdy/cr1Y2yqNPzUbeUUDdEUlbXbXYVmdyXBw9cWtT+9Jvs+l9ypygCJABUd082uidiK0X7p5f2CxXp1Rc35veuDXS7WXV4sdnMoSnPsT9+v9u9Tl3lcsydcz4FiY5ABaE41Jj6YUz4+DMo9SLl5qxhQD9/Xs4iqltN8s6L5QJce6xma4ZD5dOh1lyBCmX1glVpjcrlmvv/b+0tfX+wGP1OL8/uziku93MXAjPQohj03t0ikkOSLsrafvCYS9cXxw/+013dkvljetbf746FcT5a/Qxyz3V7WbmxsVlIcRZ2/T+S7/Npvcp1sdAZSBRsY0pu/cXtlz78yPRT2pI7PfIiarFz85cnZ/qEBc+3y7n8ERENOiNQ1ptS9OXjbMX7hffvEHe9Jrua/988YVm3L8OvXFrEE4GtNUB0qNzQ6aG0qS9J85mqmbT+/TrYUsdpPXcTdn3ja336p55vXDGhUvNJH4f6o21qXLtEOIMNr3HWh1lkgMQnzh74cxj1Pm7Mzwa/6PUOezHvDY2O0EqhDh3WDsYlte7ybMjEf+8kjDGBfmt+2oJfNdYrq+5hX3ni3GNuIXqDZYqWj2b7WemJjekNsSFz7XZ9D5f+s8c3zEQQ5A7yPpPSIuIx2PVEviufXH8bLMm3JbrtteKeXmR69Ebt0pf+u2dtYRuIOK8ASLErRGb3ucvwA2Ffx7Ur6h3ymCSA9IiykYo7oY0ll448wjV7M5wvZiXF7leSRgbl8p21PImAYQ4B9I0i/wm69C8AGf2jjQBLureOLMaey9FjRSI7HGQvpZiC3Fx9sJdP5lhziPJjYmbw+K/6WxHK1kpxGJqv7nNzWw9euISNKQbmsEFGp9B3UiYCrQc4WeZSQ7VMCQ6J3yUPMApkXtR3WxUY/6esfTCmYV9zbIiC0lgeZHrmW38+ubfZGLFbXjV4qeb/DCYhWKkJ65ztfB5PpIJcP1L/Pv+qCtkYbAyHBb2Fkc1DqsW4/c011JfHD/73kV64YyElhdJJKxm3Zc+1Fos39YNcyUr5ZjKEPfrf8im9wS4Vs9UNYbjcZiFPOGwd0T4s+J8nBVLsDFba81f2He+R5N/lHrt5o/1JlfN1lOtks4Rmajn09oTZzNFs8hvApYLcPMciuHjmeQA54Q3F1GO26zG9D1N/RxLqJnb5H4hF15o2jw87+AMde5GwuUcke8Qp0T2qPa7jVeV686psGfu5IYi/rG97KsKB0XZu1WLcVJDLL1wZkmR+Qv7Xu/RpxpWOxaoM1bVllcttuWZWC8urT1x1ja9P/EhNr13kJmpGvXYihMUK1wRrmPYF+GPHI7pe1bi6OEw68EttKTIfBcuNWwfJsbGdVrJfsjqovmZCN2pC3H9f2h103sCnIPCHoVjEf9YM85lgNKFI6J+xH9/moLMQgv7vjzENW0fI3rjVsdWkCvrPJH6xZrT2BNn8yJhfTh3menitYh/Jiuywzp9Dh6MuN6rhcMQov6elTjqZ/MI9frttRby6JMNFw4X68Z1zmbnSOpDdxpDHJve42ViWgDYBDgmOcBmgOuRnPfCmYV9l+uFMxLerWExvcxu75jNzpHUj4ujJ64Dlp/fY/kgNxTDXV0fj0hgKcCZm4hTMfzooRi+ayWOuvlnd3YturDvfA/8uO7SoWNsXGdstqupr9tTFeLC59e2JjUwHi4dWHIEWQpwUT/OH4ppVmosweUD/2briv67q5OBS4evj964lTvxoZ2jFtvX1O+hmraeOBb5xZJiWgC4h8U8YSHAxVHf3R/D961IDD0aZnutxRb2vZ7l5UUSC7UZZq2TpP8Pn6qkueBSFuJUxdqKMqKY1JAe/TH8zKNMckACAa4nxgBXDW9yUhFYBt6+8svNgeVFrtdLfdFR237aYttOiEuQzUGIPE5NifBxUdSbG5e4u0bMAa43xgBnHInhO5sGMPJG0IyDW2ph35eHuKZrh9PUF+zD3MENRk5zRe5CnK3EXDvxodtrXGepEscCwAfDnhIgyiBU0i8z7vKkRD8G7lojmZZeuPbCvls6+juOLC9yPZYoWqGwfbXVxlbSXHbFtHzR/j98csnGc3zGk6lZkWn9qjc9qTfM+9I/s1vf6HUXzbuS9V0iG/Rr8zrl2l0CVsEsOaIr0GMxNDKmsd1LCSOiANcXnqPluKvQGL57JY4GcLntta5nlhZxZHmR6831xg1wpq/IyEqvg6jbe5MvdJBM5dO21IQ4US+tLMwBuzLtycRM+301zM9oH/j5f9+TbeuVbFonrffudl3CpvfpDHIDuqF5R8QNpFmVvVf/7GFKGCkIb8aRtMxINb1wK1nYdz4HJzXMd4AQt+I23ow7712srY6zvVftXtMjMe4nTIjTdjeD9gF8fqKdwuNiPuPKtMiFK14rrRd8MY87SuGCskgX81g16n1QzSSHKucDOgxu5mmCuakwAS6px2wj5mYmphBaifrnvv+Xtq5oYd/5LrzQdPmwm7ajL1zDEkurzv+HJNv78Jo0S8OY3jjzBGc4LfV7KkKcCVBPXVGVy1Ne68AmKTx5zB3ngfDx3CCNd3qYyjPsjYuywSkLj0mwdJ01d76Z993hu43xUf0x/dzIe+HMI9SVLOx7vYuXmq6fDqasCHHLOPHvbx/p/9+eHNVtfMkEt+cmkm/vpT2p6ER4o56K9t5z+cuFg0JNY3nAUgW4kNEwqRPmFm64IllhXpet5+L3us6uJLvf9e8xIPmaIbs3qsH4uuxUDi/J/jh6gMJeuKh7t+W+99204nXh5nv/Fy9L9aHpXB6LjLUfpRs3qlNXpr2epjtDHJ1v732HD6ipKM6FjZZLM3zmlpo4xwKw6RAGgTgqUHZygKuGYgwNkd9IdLKw7/UcndQQe5llLMC12vtLk04FuFS0976DB7OsX6fCOz2Xp2eb73bCfFe2WEmFIzH8zF72VYWDzHjNWB6jhg1Z5PXdB35p66r/7gOP1dNwTMrUFbT3mQ9x4WKXD0q61m0x3/XB8LvDUeFjzziC3AlKFw4xA7P3xfjzI+9RMuPgzEb3q5GSXrjYyi7lAY72PkshLoHFLuNO6SfD3wHuMrs4RD2uoRyOVQNcCHB74xq7E1cvXKcL+87n+PIiLwsA9MbR3ket6MDBLIUHMwsn99yK/vuY9OCecAFg0xsX9cVnZi4z0QWZDXChyHuS7tUBrpOFfRdixtNFwez6kEDPninDao7DG+19lkJceEDj3CvQyt2W+Z3077aXRt3JIDeoj82BiHsUSmEw7KeEkcUAF0cv3GoW9n1ZgHtNt9y3/6Y1fxez9+ovDjybSPtgxlSlcVFZ2ns323ufAxqLnvDAsm+em+IIW308KoEFZhbqXQk0IJH3wt3zC5s7Xtg3Lp/887EkPy53Y+No7zMW4jJ+QAlyjguXHKnG8KMZE4kkHYprFup19XWfRNwLZx6hmj1SXfDAj+tJrzPXl6cVDWjvMxjipP1MvCcH529P+LvCwQYwjuOtL+KDFC1iVpP249PBhD4v8p6j969hSZGoff6vrtr42Dz1xtHeZynEhTM6Kjk6gSvMWnWPbgDNOKKhOCpnel8Ro2H9uiuqnSxWUF/3ScS9cGYiQuWN650ozL/4+ylb68zlojeO9j5jIS5cWyWPPRUHWUfOSWamatRjiUrCelCIXk3as+ASmwkX3ozEMiPVFffZ6YW7FuQyHuBo77MU4sK7jjwvjHqCnR3cEs4QOxbTRdxDCSMCo+HNhul9G066MZKIe+HMwr6r3V4r+gA33pqVatGBrPba094n194n2RPn+rYacSsJq/u7yIwrqsXwc3mEjijC2y4d3gaSXr4gDBcHov659zjSC2fWg/tqdcKFNiGrPVW09wm1935CFUKf5Ou5+GIqrm6im1dh43iEYw1H1GyGt3kORt0Im9moa13YNypfq066smVX5nrjaO+TbQP8BA5oiV6JlzjKwHfngtyQtBdMjRqTHLBS5hw0491sh7dYeuHMenBmXTgXmEeon7c7Fm4+U9aZGS9Ne598e59ET1zkd3Qpl+Uu9DSLY8mRMscai6jNBTf9usGs92ZhzFtidbbphXNlYd/73Alw1272MnRe094n3N7HelXFNa4iAw7QQ+OWGBcAPsyEltwbCc+tI2Fo2xX2uLWCm0vb88VRZ5tHqK70wpmFfc2yIo4pZ2HoBe29nfY+7r1TSeVLp/OBDAYhL8W/gmlg45hVGlUjPST52jw7ykfcey1dD2m9DjqmlPj64jeD3tYpT8x2DKU37up+/cffUXKmYX/+SvBj/fZ/6dfT+nVBiVzR33lCv9d11dX0lAos1WC1DFyvtPcW2vvYTtcweZ7joC7ZsO9y6S4cAFbnm97uD7zFb4w90VUs+BuLRdmmM92tf/57t3zsjluL/6Mr37LvU89/5qFa/azv+eebSh73m/6lhvgTl7q2zD5ZW9eUb0uQ7vtQO2jv7bX3cT5O7eWALpvOWQAYQAa8RRpTz4kKPE8Vm62m5d/8i43bXQpwf/X/Tn3/odpsTYe0y4GoMWkGE6owU69PjzZHLz0ZyA+PKwIc7X3a2vs4H6fybHxlZTREMQBIu+KGW0T5z6iupqcavjTfvnfT/zI6EYw0mtLVaKpiEEghUFJQSnkvpqUXQ9MjT86e1//O/G9eoJSv//tiI9B/t6HW7/n59btu2upvWO13m55VM5/5i6v/t/60S/rjRz0VXG34zWlfvNnx+tVg/OoTSh67pDiKtPdpa+9jue0IB3Kf45ityK5w5wAASKkBb8cvvtu/ebsqqkJXd3Fdc5MotcVTapt4xW2igi06m20UT3WL8oqi41777ynz/9cCXTvCeWZcXZdIsEH/t1v1/3zT1z908747d3Tdstpv99cPTP3t795/5T/q71HTH/Ck8v3nZoPm5WbQPf3k1ZnG1f9jp8mVhDja+9S193H1xPGYsLOyGqQYAKTXHnVh/Q1qgxoPuuvFRsGXKeUrVZDmrA5jEzqIrVPK69JpraiTku95Jrh57X6Eua4EFf6TUkUdtHTY83XwUzfp/71+y7bC+tV+sysTwdjv3j/6l/qPz+q8+IJ4/hWlZieksa4+XtjWvPpQl2p/Omjv09fexxXi9nCsOiorQhyAFNsrMvKCeuZ/2BC8cv1sc7beqBeKvmoWzZPVYFoHsqLylO83vYLnN8U8UhV/3u4NYYRS7V65Lk8pHdq86VbK82RTaZO/6v26hr8/eVq/XdI//LL+HmOq2ZzU/1yf7qo3nx/VAW5EGAtHe5/a9p6eOO5iAGDtHrtRjY+eVk/86zc1by82lXTVg67ZYHba9wpbCuLXA/GUznBBI9CpqelJ1/xtr3SIUuskCHTKE9WlfNloHrn6Ipv/2c+u37jar/TMaPPZT3/n6vd0SrssnndFqea4/qjpIAhmn5udDaYeqip2iKINS3NZRT479e79F7giKDMAuaOD2HN7gvFTm4MfPfZk89nxroYJS43ZwszUdHG6eVlNBfXipP7nqeZsYbLZmP/yJ2dlZtIbb+p/p6aVUjNea+02abzulV3bVvuNvvDX43+tU9oL+o+jnlJXlagpz1f1xsxE88rz55SMnKYXjrYr1WUWR09cD4dpVWVWpRgApD7I1ZSS2rfluTsPq+duflLk9qInm34o23Q1t2XU5LJbF/yb9eIj3pauor+5qHxPbWwqz1Pm+eob7ui6fTXf5PyzjcdPfm/qYc88RvW8K+L740p50/XZZuNK0B1IdbcOcP8Th4z2PtXtfRwhbjfHiDIDkOMgZ0a5PTYg8ljrj8oMBbqi/3Rlqb92V8Fr/JPNXrF7RjYHrWVGzDyHwsZ13qbVfIvDf3ZlWH/2JR0GR8XzxwIJplRd6sHGUuOpsc2BPMdkBtqu9JdZHIv9ljlGlBkAvBjqVvDadrNs8JqyZdb3GoFqzVL1PK+448bCqzr9xDM/rv/g4Vq9pkSNekrGVKAmfdWYCQp+Y1LpAPe3TGag7cpGmRHiuBAAwAEluWndtNSDglfwCwXxzfRVVezu8jqa2DAzq2Y+/Z2xv9Ep7ZKnvMuBkquiginVlPp493Tz/HOXlNTohaPtIsRxUCkzAIjAW0SuPioz3YGnY5sXKJ3kxCwKLF07bizc2clP+puz02cers2e138cVZ4aE9Wc8P3mTBA0ms89/3wgf/sX9MLRdmWmzIqUJwDArm+K/PMfezK11St0130/ENML1+Upr7uTn2J64T7zn69+V//xWf163ve8K7OFwmRzZqZ+ZXy8MfnImwKp/VN64ZAZPkUAALBt2wu3SLc0xQ8CP1CqoHyv2Pc/b3p9Jz/jP//D1P/z9AvNi0rJqHje1Yb4k9IIZprbbm083v3zgTxAOYMQhxiE+88BQC5t2bhNgvVFL5htFlrbOTRVcetGb8U7NZjttT7+jSvfFU8ue/oflfLGfa8+0/S6G7MzGwN5WNgfFZlr731Xv1jeRL0pLgCkx7e82ZmHvNmpSS/wu3W7ZMbESfHOHV0rnpl68vuT5jHqJR3VLuukNuYFzSllVhDuGm8+Nib0wtHxkMn23nf1iwEAcuIX7pJm107ZuLHoFXzxw41Vi+u7V7ZGXO2ZxpOf/s7VvzPbaylPjSoVjIsXTDeValx5vhnIw/fRC0fHQybxOBUAYNfUa2Rro+55jYIXyKyvvKCoRBVfccPK1oj78t9MnPZML5zZI9WsC+fJVOD5s5Pjo8GlricDeeAiZYxMYnYqAMC6TZtulHrXs966QPxAeQXPk66VrBF3/tnGE8Pfn/qBKHXZM5vc+/6EiJquB15jbOttTfmTNyqRvfTCIZPi6ImrUayUGQCszIDIpYdkevaSF0yv8wIpmokNRU9J8aYt/s7l/vZHvjz6nXB7rcvKbK+lmpPBrNSV2tR87tlbTHgjwNF2ZbbMCHFcCABg0WFZv3va2+Cv8zZ2N31PRIe4ZvG//yfrXrHc33zwJ/WHf3B+9pwo9YKnvFEVNMf9wJtW67zG2PotgXyL7bVouwhxHFQuBACIzc1qlyh/wmsqz/d8M8zH63rtzq7tS/2dcHut/6pT2vPK8y4pUVeUUpNKgpnLE1PNCw//10DohaPtIsR17CzHiDIDgJW5z2uun/TqSnmBV/D1my+eFG+/pXDrUn/r9MMz//DQudb2WpdFme21gknxg5kgmGlOzjwZyH85J/TC0XZlvczimNgwwjGizABgRf7FL8lsc1a87qZXKMz6EnhFs0bc9lLh5sX+ysysmv70d8ZO6/B2yfO81u4MgedNNZpSnw3WNy8/ensg8i/phaPtynyZRd4Td+b4jirHiDIDgBXpKsq6WeVtNOv7Kt8s9FtU4hV33Lj48iJ/+d+mvnvxhebT+r+7rDxvrOnJpAq8mcBf17zk72zK07soV9quXJRZXOvEDXOoKCsAWF5Jblq3SepdTc9rzPo6yBWUUmZ5kQUX+h2bDK587OtXquKpS2Z7LQnUhKeC6UB5jaC4ufn8T0RJjbFwtGH5KKu4QtxpjhVlBQBLe4vI1Udlpnvaa9YLXlO6CiKtx6ldN29deHmRk9+fCrfX8kaVeGOBBJNe06vPFKYbtZmLQXvEEWPhaMPyUVb0xHEXAwCWfFPk1c95xdkN3oZCwfd95XuiWltudRe9Ddf/1+fM9lrfHvs7s8m98uSKqOaEL8G08uuzV55/IZj5yUUlz7yVXjjasNyUVSwhLtxTjQGPyxth/zkAeXZrYbsU/EkJ/KbpPjMxrvjr/2rL6xf6b7/8NxOtXjilZFSHvTHleZOzyqvXZxrN0bofyNnv6X/9LQo1QbT3dtv7OPdOPcYxo4wAYHFHvK4tJZn1ZnQC833PPEpVqhioVm/cS5x/tvH4t78/+ZASecH0xAXijYsqTCvfn53YsKM580BZyTMfoBeOtixXZRRniDPdhqMct0WNCt3QAPLs5w5LfXbcmy34XsFr+EqnMp3Civ/sznWvvf4/HfjKlf+k3573lFwKlDcmXjAZeF5d+Tc1z5/fqKRWYncGe2jvLbX3sYW4M8d3jJLOl07lYRkBQD7dUpPmbJdXauo/BzrJeZ6vk5y/cd1LN74/e64+8tBPZ2utJUVExjzVnPRnvZkZmW48Xh8N5Idsr2UT7b299t6P+YsPks4XTeWDFAOAfCvL7f64zBa6PVXwfOW1xsT522/wr60RZxb2Pf6dq3+pfHXZa9WdwVVRajooNGYnLk0E4xd+rOSxIzxGtY/23kJ7H2uII50nn8oBIDVmnhS1syyNotlrq+F7SrdJKvDWdb3YE/f9H81898GfmE3u5bJSwZh4MtH0/Zl6faY5WrgcyA/P6AA3QFlaRntvp733E/gFSOcJpnIASAedvW5f501dvuypRtFTzYKnlHkm6qnSpnZPXL2hpgaHx/5KKTXqiXdF/+urXmHdtCpunJ3quqU5/sNdgTy2n144d9DeJ9zexx7iwgR6iGN5zSF64QBA2/RDaTZ9TxVmPOUrT+lg99qdxfVz//q7D88MP/Fc86Lnyaj+t2OeV5xszuj/m5ptXgpKgTxwmzAWzh2098m3935CB3ZIv1U5nlINywIAIHeIakyJCro80zHnq0D96zdvbPXCTc2o5377xOifi6grEsiYH8h4EATTXpc3W9+0Obgy0tpai14494Ic7X2C7b2f4C/UL/nuZh0NywAAYEwUWyEu8GaVDmoq8AvNXduLN5l/9b1/nPkzMY9QlXmMGlxtet6U5zVnZvxm8yeTPw7k++a/ohfONb/20SdKr7mpWSrk+9Ak1t4nFuLClYrzHGL62Z0BAOZZf7P4hY2iM5xZ3rchqlm/7cbCTWOTwZkPfmn0W8oLLokULovfNeaLN9loNOvjE1NN+f5PzJIi9MK56cS6gvTs3BrkuQwSa++T7IkzQc4sdpfHQf2D4e8OAJhTmJbu9ZtUd/f6wGsUmp7y69s2+dv/7pH6cfG8MVEypiQYbzaD6UYwVZf1NzSfGH+1kpFnCXAO+rWPPjGg33rNn7esU3LTxlwepkTbez/p307/cmbQYzUvR3NDUY3+3K3NI1zeAHCdJ+rK716nijPFQJn+OFEz5y42vvbBL12uBoG6qlPehGoGU6K8mWZ9ffOnzz8SyBkzDu5eys69ANen3w7P/99esTmQTd25CnLVMOMkxrf0i+6THGyYu76o5I4bgpL+41EucQC4zgu3ytMzm9VMMBnUpxsN5amZdw0+f0oFhQlfeZMNrz4ZiEzXu7zZ6a5tzcmrm5U88lZ64dwLcD2LtXOv3Ba02sIcGAmzTaKshLhwyu3eLAc5c9KWbwgkHNzZp0/yg1zqADBHV44j98nlsUvq2fGxoOFNN5s6tTWlMB14XVMNrzjlq66ZoLGuMV0Pmj85NxXIt8d1GvgWRedWgDMdFSf1q7TQvzdtoGkLMx7kTJbZa2P5MFs9cZkOctcFuDlH9cneyyUPAHPuUfJfLqnnmzcEV2Ymm4263/A3FGdFxmY9L5ite9sbT9elUbv4ikD+6rhOAf+UXjj3nBKzf9oSMh7krAW48FbIrrv3X5hL8ZUsHE3z/N90Hy8yvboVXL/84VeOcN0DgPEWkVu+6clrHvXW3VmULeu3etIQ8f2n5dnGG5Q8fFGFi/oS4Bzzax994oR+61vpf9/UR/CJK75M1DOz/khVv/bZXMDfmZLUYc48T0/1I0czE8cM5FxJatdBjl0bAKAlzGc3P+/JG8al1bHz1I9FHntQ//mH7I3qZoAz4e3Eav7u0+O+vDCZ+iA3mPQkBqdDXBjkesOTopSmI2l63cyaOGZK9UrTuw5xe6kGAAApDHAVaT9GXbWrM548Nea3eudSprWQryvLhjkXhXWQK4dBrpKGo7mpS8nOLYF0FTpP8V/+yCvZYw4AkJ4A9/tPmDbadJGuubNltiny1FVfJmZT0ytXFccW7ne25HSY65P2lGUne+VM75t5dFpav6bbiH4d5IaoFgAAKQhwpj02PXA9Uf7c0Wmv9YjV4V450/t2yMW9z31XSywsrF36dUQc2nPVhLdbNym586bmWgOccUJfFD1UDQCAFDgadYAzTFtq2lTTtjq25+pomEF2uRjgjFT0YYYzWM2khwNiqWfOnFg3blRy04Yg0pNMtU+SXX/2ESY6AADc9G9//4kB77odGeJgeuNemPLl0qRns2fOtMfHpD15wem2OVXTQ8Iw1xuGuUR6sMy6NjduUK1JCzHeIbRmrBLkAAAOBjjT7p5M8jNNgDOTHy5NeTLdSCyqjIThbdj18JbKEHddoCuHgW5P+B4ZE9jMhIUt3Wo1ExZWa0iHuH6qCwCAQwHOdJiYcXDWxqebCRBX615rAoQJdhEzs0xPh8Gtlrbjk5kV93Soq0i7d263tFePnnstygS0br8d1EyP2/qiyMYuqyMrD+kgN0i1AQBwIMCZ4Pbgcm1p0iZNmKt7Iy9MeiMrbe+12rzXWf0a0aGtmvZj5OXlZAwfxZZM0tYnZkerTCdsnw5yw1QfAADLIc70wFUc/Gqt3Y90WzmyXHuf9WPkcXKm6+QEACCBNpLOjhTwc/y775N2t6przB3EibAbGwCApANcn8MB7hABjhAn4UxQE+RcnIFixvad4PQEACQc4Fxuf4YYN06Imx/kzCNLV7e+6tUX01FOUQBAQgGuLGvcEzVGLrfXhDiLQW5I2isyu+hg2K0NAECcAc4M4TFrwbk4lGdurDhrqRLiFgxyA6Jk2Gyf4ODr6L89wtZcAIAY6bZGv3qcbAcJcIS4FTAL7bo4I7S14bAOckx0AABETrcvA+LuRIZ+VmsgxC3rzw47PdGhFeQ4SgCAiAOc2fHosKNfb1C3zUMcpcV5FMHLTuiKw4FpSJ/QbM0FAIiivbO+pdYSqrq928tRWho9cdfRJ01V2o9WXdSnL7qDHCUAwBoDXGtNUkcDXE3aT8ZAiFtVkBvSb0OOfr2jYW8hAACrZWaiujhprjW0KRziBELcqoOcqxMdWhcfM1YBAKuh2w+zBqmrnQH9uv1lIgMhLhLmeXzNwe/V3pqLGasAgM4CXJ9+c3VYzhEd4NhSixAXDdOdq0T26deog0vn9Ci25gIArNDbjzzRajfcXBK1NXFvgKNEiIvUVw67vTXX24+wNRcAYNkA5/JSVWypRYiLNcgN6TdXN909+PZ29zgAAEsFOFe31Nr3FSYyEOJiDnLmLsHVZ/VH385EBwDAIm2EuDkT1dir29cah4gQlwDVr18jDo4m0HdX6uTbjzzORAcAwDW6XTio24c+cXNz8P6vMBOVEJeUrxx+lenuNUuPuNjtWxa25gIAvBjgzJZaro6bHtJt6hBHaW3Ydmt1F0bF4cBkLgy25gKAfLdTTm+ppdspttSKAD1xq6BPvqq4O5OmT1+8fRwlAMhpgBt4nC21CHFYJsgNipIhN4cZyAl9EVc4SgCQSyd1O9DjYNs0ql/7wqFJiACPU9d+x/OguLv/3F1fGXhVjaMEALlpk8wYOFd3ZNin2yR2ZIgQPXFrt1fcnOhgutFPht3qAIDsB7g+hwPcEQIcIc45+qQcdTjImR5CtuYCgOwHOFPfuzoTdVi3lQMcJUKcq0HO7a25Bh7n4gGA7AY4l3dkMO0jKyYQ4pwPckPi7tZch8NudgBA9ri9pdYAExniwsSG6O+ITuq3Xkcvpr1hryEAIBttjhky4+pNumlzqhyl+NATFz3TbexiUCopkZNvY6IDAGSCrs8POhzg+glwhLjUMd3GOiz169eoa0v0CFtzAUBWAlxFvx11c6lSGQqHGIEQlz5fbT+ydHUgZ8/b2t3vAIB0BjgzE/Wko19vRLeBTGQgxKU+yJn1cJzdmuttTHQAgDQGONe31GJPVEJcZoKcma065OjXOxHezQEA0sMEOFd3Cdr3VWaiEuIyxvTGuToj9JQOcmUOEQC4723tLbV6Hf16h77K6geJY4mRZC68kig5J+4uxLj3q0e4ewIAZ9uRw60hMK6OZz6i25ABjlLy6IlLwFdf3JrLRS5v1QIABLjDbm+pRYAjxGU/yB1xesZqn64kuAgBwL0Ax5ZaIMQ5EuSGxOGtuXRl0ctRAgCnOL2lFkNx7GJMnJ07K3NRVhy9KPeGvYYAALtthdNbaum2ospRsoueODv2iaNbc4nZmuswW3MBgOUA1+dwgDtEgCPE5VbY/WzGEbjYDV0Wd1cCB4A8BLiKuDsTdUi3YYMcJTfwONXuhdrrcGAyFyoDVgEg2XbB3Eg/KI5OZNDtwl0cJXfQE2eRvhjc3prrMFtzAUCCAa4U3ti7OpGBLbUIcbguyLm9NddhtuYCgKTqXHF3Sy0WhSfEYRFub811mK25ACBO4Vqd7m6pxaoFTmJMnDsXsAlKzo6D4C4MAGKr//vE3YkMg7ruP8RRchM9cY7QF0lN6aCkX+Lgq0exNRcARO5XDz/eql8drfuHCXCEOKzQ1xzfmktXNgc5SgAQWYBzeSIDW2oR4rCKIDekb3+GxM3bsqO/+hG25gKASCg5pV9lB+v6Uf3q/xpDaJzHmDhX79A+4vbWXF/7fQa5AsAa6nint9TSdXyVo+Q+euLcZbbmqjn4vUy3/wldAbE1FwCsLsD1ORzgDhHgCHFYI30RjYZBzsXubLOOEVtzAUDnAa4iDm+ppdsettQixCGiIOfywNKKroyYsQoAKw9wZYdvgE17w0xUQhwiDnJma64jjn69g+FjAQDA0gHO+S21widAIMQh4iA3IA5vzaUrJ7bmAoClmScXrtaVBDhCHGLm9NZcTHQAgIXp+tHciPc5+vX6WW0gvVhiJF0VQVkc35qLuzkAeEm9bdbWdHUc3KCusxkHl2L0xKWIvthqJig5+vXMYwImOgDAiwHO1IuuzkStEuAIcUg+yLm9NddH2JoLAByfyGDakX0cJUIc7AS5IXF3ogNbcwFAO8CVHfxeZshLP0NfsoExcem+0zPj41yc7cTWXADyXDe7vKXWvnDpKmQAPXHpZsbH1Rz8XiVRcuJXP8yMVQA5C3Afdn5LLQIcIQ4uaHWHK9mnX+ZdnHq1ewhPcJQA5CjAtes91+rj9osttQhxcC7IffRVLm+V0vsrH2ZrLgDZp+u6ss5Kpxz9emyplVGMictOBTKg3w47+vX6v/7R1mQMAMhi/WuGjpgA5+oY5V26DmYiQwbRE5cR+gI1Ic7RsQ7q6K98+DxbcwHIKOX0lloEOEIc0lGR9OvXiHuDMVrrJJ3SQY6JDgAyRddrZm3MPnFzIJx5CsIqAYQ4pMHXP3qHudsyCzi6eNc197gBALIS4MyamK6O+x3SbcIQR4kQh3QFuZq4uxJ3j670mLEKIAsBzukttXRb0M9RIsQhnUGuKg5vzRU+fgCAtAa4UhjgXBwi4vKNPAhxWGGQGxKHt+bSlWCFowQgpcyWWq7ORN0XDq0BIQ4pD3KmN87VQa0nmbEKIG10vWXGwLl6E9qv630mMhDikCHubs0lcoIZqwBSFOD69Jurw0GO6ADHllqEOGSJ4zNW2ZoLQFoCnMv1lZmJOsBRIsQhm0HO8a25zrM1FwCXA5zLSySxpRYhDjkIckP6zdXNjw+GjykAwNUA5+LQDyYyEOKQoyBn7tZcHTPB1lwAnKybxOkttVprg4IQh1xQ0q9fIw7uEFPSr5O/8ntMdADgBl0fHdT1Up+bO2oxExWEuNz5+sda3e5m6REXu9/LwtZcANwIcG5vqfUxttSCiEcR5LaCqjgcmEwFxZYxAGzVjz3i7ji4qq4f93KUYNATl1O6EqiKuzOa+nQl2sdRAmAhwLGlFghxSEWQG1QiQ24O95ATv/x7bM0FIFmm7tGvHgfrxFFlZqJ+jJmoeBGPUyE6LD0o7u4DeNc3PsbsKwCJ1IVmDJyrOzL0f4NxcLgOPXEw9oqbEx3M44yTv8yMVQDxB7g+hwPcEQIcCHFY0Dfa3fOuBjm25gIQd4Az9YyrM1GHdR09wFECIQ5LBTmnt+bSlSyVGIA4ApzLOzKYepmZ+iDEYUVBbkjc3Zrr8C8zYxVA9JzeUusbTGTAEpjYgIXuTE/qt15HK7W9Ya8hAKy1rjNDNVy9OTR1XZWjhKXQE4eFmO57F4MSEx0ARBXgDjoc4PoJcCDEYVW+wdZcALId4Cri8JZazETFSvE4FUtVdOaR6kmHK7qOBvzevf+CqbjNLLTdYRicey2lNu91Vr9GzhzfwR0yYMlar+MuX52/dUPzwMaicnIig67X7uIogxCHaILc77YeObh6x9r/jT9Y/I5VV/amYjdBdI9EP8ZvWL9Om3cd6mqcKUBsoS2263hzMZANRSWb9EuHO9u/qqlH7tJ1GhMZQIhDpEHO5cG/ptIbmVfhl8KK/oAktwuF+fxjYaCjAgbWHtwSv47XFZSUuoNWsPOTbxnbk7b+gElbIMQh+hA3t46Ss1tzPTbWZd4PhpV+yeJ3MWFukDAHrDq8Wb2OTYC7QYe5UnczyTC35FMFgBCHKILcOXFsPaVAibwwU6iN1v2SQ9+NMAekLLxZDHNHdIAb4CwAIQ5xBznTE/egK99nbNaX56YLrSDnKBPgDukgxx02sHiA65P2uFsnlw4yAe6W9U3Z2hXE8eOHdYDbx1kAQhySCnKmwrW6l+ls4MkzOrxNNVJz+lb1q58JEMBLwls5rEsqafi+ZgLEdh3mIpwAYca/7WUiAwhxSDrImbvmgzY+e7zhyzNTTve+LWY0DHLDnEEgwF3oDQNcqhbuNr1y2zc0W5MfIqgPmMgAQhysBblTSd9Bm0eno/XUr09txskd4gxCjgOctZvAqJhZrOYR6xqYAFflbAAhDla8NcEZq6bX7eJUMU2PT5djKu99THpAzsJba9s8Scnj0+WYx6u3bWisZtLDoW/+wR2DnBEgxMF2kOsJg1xsj0RMgHtqsigzzcydqq3xMAQ55CjAubpM0aqZteV2buwoyA3pANfPGQFCHFwJcrFtzZXhAEeQAwEuf0FuRAc4ttRCpHyKAGuhKyUzUD/yMV45CHASNmqnwkYOIMClkKmjTF21zGSr1kQGzggQ4uBikDPjO4ai/JlmDFzGA9z8IHeSswgZdTLLAW5+kDN11lIB7pssJQJCHBx2SJSMiLkbXePr+XStAReFSjhjD8iM8Jyu5OX3NXWWqbteVqe1JzKwlAhiwZg4ROatv3O+LO0dHVb9eHCi4es72kJei3Af68ghIwEutrGyrrttQ1M2vbiO3OA3P34HSwqBEIfUBLlVb83VCDx5fPmxJVlmHrfcxc4OSHmAW/PNXJqZCQ6v2tiQoq+GdYBjSy3Ee75RBIiSrrTMY4NVTaF/ZrqQ5wAnYaN3grMIKZe6nRii1FrXcrowutp6ECDEwXaQG5IOJzpcnfVlqknHsLTHx/VRDEij8Nyt5L0cZppe6cdXu3o5IxA3Wk3E5q2/s7Ktucyda22iK++9cPOZu/hdrB+HlAU40/t2TnLcC8d1jKTRE4c4mfEgtWVrutkCAe6lTCN4kGJAyhwkwHEdI1n0xCFW4USHRbfmoheOu3ikH71wXMewg544xGq5iQ70wnEXj0ygF47rGBbQE4dEvPV3zg/ot8Pz/zd64biLR/rRC8d1DHvoiUMivvnxOwZ0Vhuav5D5eMMnwC1/F88MN7iulwDHdQxCHLLPrFx+bfuZK3VOvxU4QBGAc5QyAhbC41Qk6i2/UyvrtwcbgVc6P9FFgazMLnZxgIvC3RnOURJcx7CDrhAk6lsfL5tKbK/ZIxUrxqMYcG5SVgAhDk4EuZHL9UKVklixPRQBODcpK4AQByc0FVvzcAcPzk3KCiDEIVXu3n+BAEeZgXOSMgMIcUihHoqAMgPnJGUGrE2RIoAFuymCzhQ8tect/742QknAFbUJtaepWOCAug+EOORNmSLoTLffGk/DmBq4dE7KVJNyoO6DTTxOBRVZCsyyswU4J6n7AEIcqMjSpxHw2Aqck9R9ACEOAACAEAcAAABCHIBFNJgJCKReuN8sQIgDFVieFD1GkoMbirQ7c3xHjVIAIQ5UYAC4oQAIcQAAAEjVDRVFAKQDfR8AAEIcbKsJ6yV1dqGax1ekODh2TjI2blV1HxAZHqeCiiwFurhSwTlJ3QcQ4kBFlj4MJAfnJHUfQIiDC85SBJ3p9mkwwTlJ3QcQ4mDfCEXQmXU0mOCcpO4DrsOoVFhx9/4LtAAdePWmOoUA5/x0optC6MCZ4ztocxEpeuJgyzBFsDKbCgGFAM5N6jyAEAdnnKYIVmZ9gU5LcG5S5wGEOHBXmjqbivR2gHOTOg8gxMER4R6qDPJdhpkByFIOcJU5N5mluiIj7BsNQhyy5hhFsLRtXU0KAZyj1HUAIQ7OMY8XRimGRS5Oj4HjcJ85R33mXC5lVHiUCkIcsubM8R2j3KEuzvRw0DgiDTcb9MYt6VhY1wGEOGTOoNAbt3DDWKRhREpuOIrccCxiNKzjAEIcsofeuEUaRXrhkLabDnrjFkIvHAhxyDx6465vEOmFQ9puPOiNux69cCDEIfvCO9VDlETbTd0NGkOk8ubDnLu45hC9cIgbTQWccff+C6f0WyXPZbChoOS29bOcDEiti9NdMtXMfdNS1QFuL2cDYr95ogjgkH7J8WNV05Nxyzp6MpBu5hzOeU/yaFiXAbGjJw5OuXv/hV79djKPv/vN3c3qVgaHIwPGZgvyfL1Qyemvv+/M8R2sCwdCHHIb5I7qt4M5+7UHdcXPuEBwHXMdA4Q4pL4ByNP4OMbPgOuY6xjoGGPi4Kp9+jWSg99zJPxdAa5jrmOgI/TEweW7+JJ+M3fyPRmu+PeyDAG4jrmOAUIcaACo+AGuY65j5ASPU+G0sHI040yqGfq1qlT84DrmOgbWip44pOluPguz3Zi9Bq5jrmOAEIdcNgBmHbkT+lVK2VdvLQDK+lEA1zFAiEOeG4By2ABUUvKVq2HFX+PoAVzHACEONAL7L/Tpt6MO382bu3azCfYQRwvgOgYIccBLGwBT8ZvxNQccagRMpX9M2uNmGPQMcB0DhDjA8UaASh/gOgYIccAaGoHesBFIak2qkbDSH6bSB7iOAUIcsPaGoBw2BHvC9yiZ2Wmnwwq/RmkDXMcAIQ6IrzGohHf1u/WrPO+1lNq811lzt64r+yqlCXAdAwDcaRxK4V0/AK5jAAAAAAAAAAAAAAAAAAAAAAAAAAAAAAAAAAAAAAAAAAAAAAAAAAAAAAAAAAAAAAAAAAAAAAAAAAAAAAAAAAAAAAAAAAAAAAAAAAAAAAAAAAAAAAAAAAAAAAAAAAAAAAAAAAAAAAAAAAAAAAAAAAAAAAAAAACATPr/BRgAqbzMbYb9KekAAAAASUVORK5CYII=;" vertex="1" parent="1">
          <mxGeometry x="751" y="284.38" width="75.62" height="75.62" as="geometry" />
        </mxCell>
      </root>
    </mxGraphModel>
  </diagram>
</mxfile>
